<svg xmlns="http://www.w3.org/2000/svg"><symbol id="icon-fb" viewBox="0 0 96.1 96.1"><path d="M72.1 0H59.6c-14 0-23 9.3-23 23.7v10.9H24c-1.1 0-2 .9-2 2v15.8c0 1.1.9 2 2 2h12.5v39.9c0 1.1.9 2 2 2h16.4c1.1 0 2-.9 2-2v-40h14.7c1.1 0 2-.9 2-2V36.5c0-.5-.2-1-.6-1.4-.4-.4-.9-.6-1.4-.6H56.8v-9.2c0-4.4 1.1-6.7 6.8-6.7H72c1.1 0 2-.9 2-2V2c0-1.1-.8-2-1.9-2z"/></symbol><symbol id="icon-mail" viewBox="0 0 485.2 485.2"><path d="M485.2 363.9c0 10.6-3 20.5-7.8 29.2L324.2 221.7 475.7 89.1c5.9 9.4 9.4 20.3 9.4 32.2v242.6zM242.6 252.8L453.5 68.3c-8.7-4.7-18.4-7.6-28.9-7.6H60.7c-10.5 0-20.3 2.9-28.9 7.6l210.8 184.5zm58.8-11.2l-48.8 42.7c-2.9 2.5-6.4 3.7-10 3.7-3.6 0-7.1-1.2-10-3.7l-48.8-42.7L28.7 415.2c9.3 5.8 20.2 9.3 32 9.3h363.9c11.8 0 22.7-3.5 32-9.3L301.4 241.6zM9.4 89.1C3.6 98.4 0 109.4 0 121.3v242.6c0 10.6 3 20.5 7.8 29.2L161 221.7 9.4 89.1z"/></symbol></svg>